<svg viewbox="0 0 165 165" width="165" height="165" xmlns="http://www.w3.org/2000/svg" version="1.1">
<style>rect{fill:#000000}</style>
<rect x="0" y="0" width="165" height="165" style="fill:white"/> <rect x="10" y="10" width="5" height="5"/> <rect x="15" y="10" width="5" height="5"/> <rect x="20" y="10" width="5" height="5"/> <rect x="25" y="10" width="5" height="5"/> <rect x="30" y="10" width="5" height="5"/> <rect x="35" y="10" width="5" height="5"/> <rect x="40" y="10" width="5" height="5"/> <rect x="55" y="10" width="5" height="5"/> <rect x="80" y="10" width="5" height="5"/> <rect x="90" y="10" width="5" height="5"/> <rect x="100" y="10" width="5" height="5"/> <rect x="105" y="10" width="5" height="5"/> <rect x="110" y="10" width="5" height="5"/> <rect x="120" y="10" width="5" height="5"/> <rect x="125" y="10" width="5" height="5"/> <rect x="130" y="10" width="5" height="5"/> <rect x="135" y="10" width="5" height="5"/> <rect x="140" y="10" width="5" height="5"/> <rect x="145" y="10" width="5" height="5"/> <rect x="150" y="10" width="5" height="5"/> <rect x="10" y="15" width="5" height="5"/> <rect x="40" y="15" width="5" height="5"/> <rect x="50" y="15" width="5" height="5"/> <rect x="55" y="15" width="5" height="5"/> <rect x="65" y="15" width="5" height="5"/> <rect x="70" y="15" width="5" height="5"/> <rect x="80" y="15" width="5" height="5"/> <rect x="85" y="15" width="5" height="5"/> <rect x="90" y="15" width="5" height="5"/> <rect x="95" y="15" width="5" height="5"/> <rect x="100" y="15" width="5" height="5"/> <rect x="120" y="15" width="5" height="5"/> <rect x="150" y="15" width="5" height="5"/> <rect x="10" y="20" width="5" height="5"/> <rect x="20" y="20" width="5" height="5"/> <rect x="25" y="20" width="5" height="5"/> <rect x="30" y="20" width="5" height="5"/> <rect x="40" y="20" width="5" height="5"/> <rect x="55" y="20" width="5" height="5"/> <rect x="60" y="20" width="5" height="5"/> <rect x="65" y="20" width="5" height="5"/> <rect x="85" y="20" width="5" height="5"/> <rect x="90" y="20" width="5" height="5"/> <rect x="105" y="20" width="5" height="5"/> <rect x="110" y="20" width="5" height="5"/> <rect x="120" y="20" width="5" height="5"/> <rect x="130" y="20" width="5" height="5"/> <rect x="135" y="20" width="5" height="5"/> <rect x="140" y="20" width="5" height="5"/> <rect x="150" y="20" width="5" height="5"/> <rect x="10" y="25" width="5" height="5"/> <rect x="20" y="25" width="5" height="5"/> <rect x="25" y="25" width="5" height="5"/> <rect x="30" y="25" width="5" height="5"/> <rect x="40" y="25" width="5" height="5"/> <rect x="50" y="25" width="5" height="5"/> <rect x="55" y="25" width="5" height="5"/> <rect x="65" y="25" width="5" height="5"/> <rect x="75" y="25" width="5" height="5"/> <rect x="80" y="25" width="5" height="5"/> <rect x="85" y="25" width="5" height="5"/> <rect x="95" y="25" width="5" height="5"/> <rect x="105" y="25" width="5" height="5"/> <rect x="120" y="25" width="5" height="5"/> <rect x="130" y="25" width="5" height="5"/> <rect x="135" y="25" width="5" height="5"/> <rect x="140" y="25" width="5" height="5"/> <rect x="150" y="25" width="5" height="5"/> <rect x="10" y="30" width="5" height="5"/> <rect x="20" y="30" width="5" height="5"/> <rect x="25" y="30" width="5" height="5"/> <rect x="30" y="30" width="5" height="5"/> <rect x="40" y="30" width="5" height="5"/> <rect x="60" y="30" width="5" height="5"/> <rect x="70" y="30" width="5" height="5"/> <rect x="75" y="30" width="5" height="5"/> <rect x="90" y="30" width="5" height="5"/> <rect x="95" y="30" width="5" height="5"/> <rect x="100" y="30" width="5" height="5"/> <rect x="105" y="30" width="5" height="5"/> <rect x="120" y="30" width="5" height="5"/> <rect x="130" y="30" width="5" height="5"/> <rect x="135" y="30" width="5" height="5"/> <rect x="140" y="30" width="5" height="5"/> <rect x="150" y="30" width="5" height="5"/> <rect x="10" y="35" width="5" height="5"/> <rect x="40" y="35" width="5" height="5"/> <rect x="50" y="35" width="5" height="5"/> <rect x="60" y="35" width="5" height="5"/> <rect x="75" y="35" width="5" height="5"/> <rect x="80" y="35" width="5" height="5"/> <rect x="85" y="35" width="5" height="5"/> <rect x="95" y="35" width="5" height="5"/> <rect x="120" y="35" width="5" height="5"/> <rect x="150" y="35" width="5" height="5"/> <rect x="10" y="40" width="5" height="5"/> <rect x="15" y="40" width="5" height="5"/> <rect x="20" y="40" width="5" height="5"/> <rect x="25" y="40" width="5" height="5"/> <rect x="30" y="40" width="5" height="5"/> <rect x="35" y="40" width="5" height="5"/> <rect x="40" y="40" width="5" height="5"/> <rect x="50" y="40" width="5" height="5"/> <rect x="60" y="40" width="5" height="5"/> <rect x="70" y="40" width="5" height="5"/> <rect x="80" y="40" width="5" height="5"/> <rect x="90" y="40" width="5" height="5"/> <rect x="100" y="40" width="5" height="5"/> <rect x="110" y="40" width="5" height="5"/> <rect x="120" y="40" width="5" height="5"/> <rect x="125" y="40" width="5" height="5"/> <rect x="130" y="40" width="5" height="5"/> <rect x="135" y="40" width="5" height="5"/> <rect x="140" y="40" width="5" height="5"/> <rect x="145" y="40" width="5" height="5"/> <rect x="150" y="40" width="5" height="5"/> <rect x="70" y="45" width="5" height="5"/> <rect x="80" y="45" width="5" height="5"/> <rect x="90" y="45" width="5" height="5"/> <rect x="105" y="45" width="5" height="5"/> <rect x="110" y="45" width="5" height="5"/> <rect x="10" y="50" width="5" height="5"/> <rect x="15" y="50" width="5" height="5"/> <rect x="20" y="50" width="5" height="5"/> <rect x="25" y="50" width="5" height="5"/> <rect x="30" y="50" width="5" height="5"/> <rect x="40" y="50" width="5" height="5"/> <rect x="45" y="50" width="5" height="5"/> <rect x="50" y="50" width="5" height="5"/> <rect x="55" y="50" width="5" height="5"/> <rect x="60" y="50" width="5" height="5"/> <rect x="70" y="50" width="5" height="5"/> <rect x="75" y="50" width="5" height="5"/> <rect x="95" y="50" width="5" height="5"/> <rect x="105" y="50" width="5" height="5"/> <rect x="115" y="50" width="5" height="5"/> <rect x="125" y="50" width="5" height="5"/> <rect x="135" y="50" width="5" height="5"/> <rect x="145" y="50" width="5" height="5"/> <rect x="25" y="55" width="5" height="5"/> <rect x="30" y="55" width="5" height="5"/> <rect x="45" y="55" width="5" height="5"/> <rect x="55" y="55" width="5" height="5"/> <rect x="75" y="55" width="5" height="5"/> <rect x="90" y="55" width="5" height="5"/> <rect x="95" y="55" width="5" height="5"/> <rect x="100" y="55" width="5" height="5"/> <rect x="105" y="55" width="5" height="5"/> <rect x="110" y="55" width="5" height="5"/> <rect x="115" y="55" width="5" height="5"/> <rect x="120" y="55" width="5" height="5"/> <rect x="125" y="55" width="5" height="5"/> <rect x="130" y="55" width="5" height="5"/> <rect x="150" y="55" width="5" height="5"/> <rect x="30" y="60" width="5" height="5"/> <rect x="40" y="60" width="5" height="5"/> <rect x="50" y="60" width="5" height="5"/> <rect x="55" y="60" width="5" height="5"/> <rect x="65" y="60" width="5" height="5"/> <rect x="70" y="60" width="5" height="5"/> <rect x="75" y="60" width="5" height="5"/> <rect x="80" y="60" width="5" height="5"/> <rect x="85" y="60" width="5" height="5"/> <rect x="90" y="60" width="5" height="5"/> <rect x="110" y="60" width="5" height="5"/> <rect x="115" y="60" width="5" height="5"/> <rect x="120" y="60" width="5" height="5"/> <rect x="130" y="60" width="5" height="5"/> <rect x="10" y="65" width="5" height="5"/> <rect x="15" y="65" width="5" height="5"/> <rect x="25" y="65" width="5" height="5"/> <rect x="50" y="65" width="5" height="5"/> <rect x="55" y="65" width="5" height="5"/> <rect x="60" y="65" width="5" height="5"/> <rect x="65" y="65" width="5" height="5"/> <rect x="80" y="65" width="5" height="5"/> <rect x="85" y="65" width="5" height="5"/> <rect x="90" y="65" width="5" height="5"/> <rect x="105" y="65" width="5" height="5"/> <rect x="110" y="65" width="5" height="5"/> <rect x="125" y="65" width="5" height="5"/> <rect x="130" y="65" width="5" height="5"/> <rect x="135" y="65" width="5" height="5"/> <rect x="145" y="65" width="5" height="5"/> <rect x="10" y="70" width="5" height="5"/> <rect x="15" y="70" width="5" height="5"/> <rect x="30" y="70" width="5" height="5"/> <rect x="40" y="70" width="5" height="5"/> <rect x="45" y="70" width="5" height="5"/> <rect x="50" y="70" width="5" height="5"/> <rect x="55" y="70" width="5" height="5"/> <rect x="65" y="70" width="5" height="5"/> <rect x="85" y="70" width="5" height="5"/> <rect x="95" y="70" width="5" height="5"/> <rect x="100" y="70" width="5" height="5"/> <rect x="105" y="70" width="5" height="5"/> <rect x="125" y="70" width="5" height="5"/> <rect x="135" y="70" width="5" height="5"/> <rect x="140" y="70" width="5" height="5"/> <rect x="10" y="75" width="5" height="5"/> <rect x="15" y="75" width="5" height="5"/> <rect x="35" y="75" width="5" height="5"/> <rect x="55" y="75" width="5" height="5"/> <rect x="60" y="75" width="5" height="5"/> <rect x="70" y="75" width="5" height="5"/> <rect x="75" y="75" width="5" height="5"/> <rect x="90" y="75" width="5" height="5"/> <rect x="95" y="75" width="5" height="5"/> <rect x="100" y="75" width="5" height="5"/> <rect x="105" y="75" width="5" height="5"/> <rect x="110" y="75" width="5" height="5"/> <rect x="115" y="75" width="5" height="5"/> <rect x="120" y="75" width="5" height="5"/> <rect x="125" y="75" width="5" height="5"/> <rect x="130" y="75" width="5" height="5"/> <rect x="150" y="75" width="5" height="5"/> <rect x="10" y="80" width="5" height="5"/> <rect x="25" y="80" width="5" height="5"/> <rect x="40" y="80" width="5" height="5"/> <rect x="55" y="80" width="5" height="5"/> <rect x="75" y="80" width="5" height="5"/> <rect x="80" y="80" width="5" height="5"/> <rect x="85" y="80" width="5" height="5"/> <rect x="95" y="80" width="5" height="5"/> <rect x="110" y="80" width="5" height="5"/> <rect x="120" y="80" width="5" height="5"/> <rect x="135" y="80" width="5" height="5"/> <rect x="140" y="80" width="5" height="5"/> <rect x="15" y="85" width="5" height="5"/> <rect x="35" y="85" width="5" height="5"/> <rect x="50" y="85" width="5" height="5"/> <rect x="55" y="85" width="5" height="5"/> <rect x="60" y="85" width="5" height="5"/> <rect x="70" y="85" width="5" height="5"/> <rect x="75" y="85" width="5" height="5"/> <rect x="90" y="85" width="5" height="5"/> <rect x="110" y="85" width="5" height="5"/> <rect x="115" y="85" width="5" height="5"/> <rect x="120" y="85" width="5" height="5"/> <rect x="125" y="85" width="5" height="5"/> <rect x="145" y="85" width="5" height="5"/> <rect x="20" y="90" width="5" height="5"/> <rect x="40" y="90" width="5" height="5"/> <rect x="45" y="90" width="5" height="5"/> <rect x="60" y="90" width="5" height="5"/> <rect x="70" y="90" width="5" height="5"/> <rect x="80" y="90" width="5" height="5"/> <rect x="85" y="90" width="5" height="5"/> <rect x="90" y="90" width="5" height="5"/> <rect x="105" y="90" width="5" height="5"/> <rect x="135" y="90" width="5" height="5"/> <rect x="140" y="90" width="5" height="5"/> <rect x="10" y="95" width="5" height="5"/> <rect x="15" y="95" width="5" height="5"/> <rect x="20" y="95" width="5" height="5"/> <rect x="30" y="95" width="5" height="5"/> <rect x="45" y="95" width="5" height="5"/> <rect x="50" y="95" width="5" height="5"/> <rect x="60" y="95" width="5" height="5"/> <rect x="85" y="95" width="5" height="5"/> <rect x="90" y="95" width="5" height="5"/> <rect x="95" y="95" width="5" height="5"/> <rect x="100" y="95" width="5" height="5"/> <rect x="105" y="95" width="5" height="5"/> <rect x="110" y="95" width="5" height="5"/> <rect x="115" y="95" width="5" height="5"/> <rect x="120" y="95" width="5" height="5"/> <rect x="125" y="95" width="5" height="5"/> <rect x="130" y="95" width="5" height="5"/> <rect x="140" y="95" width="5" height="5"/> <rect x="150" y="95" width="5" height="5"/> <rect x="10" y="100" width="5" height="5"/> <rect x="20" y="100" width="5" height="5"/> <rect x="40" y="100" width="5" height="5"/> <rect x="45" y="100" width="5" height="5"/> <rect x="50" y="100" width="5" height="5"/> <rect x="60" y="100" width="5" height="5"/> <rect x="65" y="100" width="5" height="5"/> <rect x="70" y="100" width="5" height="5"/> <rect x="85" y="100" width="5" height="5"/> <rect x="110" y="100" width="5" height="5"/> <rect x="115" y="100" width="5" height="5"/> <rect x="125" y="100" width="5" height="5"/> <rect x="130" y="100" width="5" height="5"/> <rect x="140" y="100" width="5" height="5"/> <rect x="10" y="105" width="5" height="5"/> <rect x="20" y="105" width="5" height="5"/> <rect x="25" y="105" width="5" height="5"/> <rect x="30" y="105" width="5" height="5"/> <rect x="50" y="105" width="5" height="5"/> <rect x="65" y="105" width="5" height="5"/> <rect x="80" y="105" width="5" height="5"/> <rect x="85" y="105" width="5" height="5"/> <rect x="90" y="105" width="5" height="5"/> <rect x="105" y="105" width="5" height="5"/> <rect x="130" y="105" width="5" height="5"/> <rect x="145" y="105" width="5" height="5"/> <rect x="10" y="110" width="5" height="5"/> <rect x="25" y="110" width="5" height="5"/> <rect x="35" y="110" width="5" height="5"/> <rect x="40" y="110" width="5" height="5"/> <rect x="45" y="110" width="5" height="5"/> <rect x="60" y="110" width="5" height="5"/> <rect x="65" y="110" width="5" height="5"/> <rect x="85" y="110" width="5" height="5"/> <rect x="90" y="110" width="5" height="5"/> <rect x="95" y="110" width="5" height="5"/> <rect x="110" y="110" width="5" height="5"/> <rect x="115" y="110" width="5" height="5"/> <rect x="120" y="110" width="5" height="5"/> <rect x="125" y="110" width="5" height="5"/> <rect x="130" y="110" width="5" height="5"/> <rect x="140" y="110" width="5" height="5"/> <rect x="145" y="110" width="5" height="5"/> <rect x="150" y="110" width="5" height="5"/> <rect x="50" y="115" width="5" height="5"/> <rect x="55" y="115" width="5" height="5"/> <rect x="70" y="115" width="5" height="5"/> <rect x="75" y="115" width="5" height="5"/> <rect x="80" y="115" width="5" height="5"/> <rect x="90" y="115" width="5" height="5"/> <rect x="100" y="115" width="5" height="5"/> <rect x="105" y="115" width="5" height="5"/> <rect x="110" y="115" width="5" height="5"/> <rect x="130" y="115" width="5" height="5"/> <rect x="135" y="115" width="5" height="5"/> <rect x="140" y="115" width="5" height="5"/> <rect x="145" y="115" width="5" height="5"/> <rect x="150" y="115" width="5" height="5"/> <rect x="10" y="120" width="5" height="5"/> <rect x="15" y="120" width="5" height="5"/> <rect x="20" y="120" width="5" height="5"/> <rect x="25" y="120" width="5" height="5"/> <rect x="30" y="120" width="5" height="5"/> <rect x="35" y="120" width="5" height="5"/> <rect x="40" y="120" width="5" height="5"/> <rect x="50" y="120" width="5" height="5"/> <rect x="60" y="120" width="5" height="5"/> <rect x="75" y="120" width="5" height="5"/> <rect x="80" y="120" width="5" height="5"/> <rect x="85" y="120" width="5" height="5"/> <rect x="90" y="120" width="5" height="5"/> <rect x="105" y="120" width="5" height="5"/> <rect x="110" y="120" width="5" height="5"/> <rect x="120" y="120" width="5" height="5"/> <rect x="130" y="120" width="5" height="5"/> <rect x="135" y="120" width="5" height="5"/> <rect x="140" y="120" width="5" height="5"/> <rect x="10" y="125" width="5" height="5"/> <rect x="40" y="125" width="5" height="5"/> <rect x="55" y="125" width="5" height="5"/> <rect x="70" y="125" width="5" height="5"/> <rect x="75" y="125" width="5" height="5"/> <rect x="90" y="125" width="5" height="5"/> <rect x="105" y="125" width="5" height="5"/> <rect x="110" y="125" width="5" height="5"/> <rect x="130" y="125" width="5" height="5"/> <rect x="150" y="125" width="5" height="5"/> <rect x="10" y="130" width="5" height="5"/> <rect x="20" y="130" width="5" height="5"/> <rect x="25" y="130" width="5" height="5"/> <rect x="30" y="130" width="5" height="5"/> <rect x="40" y="130" width="5" height="5"/> <rect x="50" y="130" width="5" height="5"/> <rect x="70" y="130" width="5" height="5"/> <rect x="80" y="130" width="5" height="5"/> <rect x="95" y="130" width="5" height="5"/> <rect x="110" y="130" width="5" height="5"/> <rect x="115" y="130" width="5" height="5"/> <rect x="120" y="130" width="5" height="5"/> <rect x="125" y="130" width="5" height="5"/> <rect x="130" y="130" width="5" height="5"/> <rect x="140" y="130" width="5" height="5"/> <rect x="10" y="135" width="5" height="5"/> <rect x="20" y="135" width="5" height="5"/> <rect x="25" y="135" width="5" height="5"/> <rect x="30" y="135" width="5" height="5"/> <rect x="40" y="135" width="5" height="5"/> <rect x="50" y="135" width="5" height="5"/> <rect x="55" y="135" width="5" height="5"/> <rect x="90" y="135" width="5" height="5"/> <rect x="105" y="135" width="5" height="5"/> <rect x="110" y="135" width="5" height="5"/> <rect x="135" y="135" width="5" height="5"/> <rect x="140" y="135" width="5" height="5"/> <rect x="145" y="135" width="5" height="5"/> <rect x="150" y="135" width="5" height="5"/> <rect x="10" y="140" width="5" height="5"/> <rect x="20" y="140" width="5" height="5"/> <rect x="25" y="140" width="5" height="5"/> <rect x="30" y="140" width="5" height="5"/> <rect x="40" y="140" width="5" height="5"/> <rect x="50" y="140" width="5" height="5"/> <rect x="55" y="140" width="5" height="5"/> <rect x="65" y="140" width="5" height="5"/> <rect x="70" y="140" width="5" height="5"/> <rect x="85" y="140" width="5" height="5"/> <rect x="95" y="140" width="5" height="5"/> <rect x="100" y="140" width="5" height="5"/> <rect x="105" y="140" width="5" height="5"/> <rect x="110" y="140" width="5" height="5"/> <rect x="120" y="140" width="5" height="5"/> <rect x="125" y="140" width="5" height="5"/> <rect x="130" y="140" width="5" height="5"/> <rect x="135" y="140" width="5" height="5"/> <rect x="140" y="140" width="5" height="5"/> <rect x="145" y="140" width="5" height="5"/> <rect x="10" y="145" width="5" height="5"/> <rect x="40" y="145" width="5" height="5"/> <rect x="50" y="145" width="5" height="5"/> <rect x="55" y="145" width="5" height="5"/> <rect x="65" y="145" width="5" height="5"/> <rect x="80" y="145" width="5" height="5"/> <rect x="85" y="145" width="5" height="5"/> <rect x="90" y="145" width="5" height="5"/> <rect x="100" y="145" width="5" height="5"/> <rect x="110" y="145" width="5" height="5"/> <rect x="115" y="145" width="5" height="5"/> <rect x="125" y="145" width="5" height="5"/> <rect x="135" y="145" width="5" height="5"/> <rect x="145" y="145" width="5" height="5"/> <rect x="10" y="150" width="5" height="5"/> <rect x="15" y="150" width="5" height="5"/> <rect x="20" y="150" width="5" height="5"/> <rect x="25" y="150" width="5" height="5"/> <rect x="30" y="150" width="5" height="5"/> <rect x="35" y="150" width="5" height="5"/> <rect x="40" y="150" width="5" height="5"/> <rect x="50" y="150" width="5" height="5"/> <rect x="55" y="150" width="5" height="5"/> <rect x="60" y="150" width="5" height="5"/> <rect x="65" y="150" width="5" height="5"/> <rect x="95" y="150" width="5" height="5"/> <rect x="105" y="150" width="5" height="5"/> <rect x="115" y="150" width="5" height="5"/> <rect x="130" y="150" width="5" height="5"/> <rect x="140" y="150" width="5" height="5"/></svg>